<?xml version="1.0" encoding="utf-8"?>
<!-- Generator: Adobe Illustrator 14.0.0, SVG Export Plug-In . SVG Version: 6.00 Build 43363)  -->
<!DOCTYPE svg PUBLIC "-//W3C//DTD SVG 1.1//EN" "http://www.w3.org/Graphics/SVG/1.1/DTD/svg11.dtd">
<svg version="1.1" id="Слой_1" xmlns="http://www.w3.org/2000/svg" xmlns:xlink="http://www.w3.org/1999/xlink" x="0px" y="0px"
	 width="176px" height="52px" viewBox="0 0 176 52" enable-background="new 0 0 176 52" xml:space="preserve">
<path fill="#88B6E5" d="M7.765,23.383l2.646-1.309l4.181-6.282l1.28-0.523l1.365,6.369l-1.792,0.262l-1.365-2.618l-1.024,4.101
	h4.522l4.693,1.221l1.877-1.221l3.157,3.315l1.365-6.107l2.219,2.269l1.365-1.92l2.219-0.61l3.243-3.054l0.512-1.483l2.645,0.436
	l1.109,1.483l-1.962,4.188l4.864-2.53v-1.222l1.877-0.436l2.048,2.094l2.048-2.53V15.53l3.328-2.356l1.366-2.006h2.133l3.754-7.765
	L64.683,0l1.195,1.919L64,4.362l0.683,1.57l1.792,0.349l1.451,6.457v5.409l2.56,3.577l1.28,4.974l-4.438-2.879l-1.963-8.289
	l-1.194,0.262L64,21.376l-3.243,5.322l-0.938,8.114l2.219,0.523l0.938-1.135l2.133,2.443l1.621,7.328l-0.17,4.712h-2.048
	l-0.768-6.631l-1.451,2.007l-3.157-0.698l-2.56-2.181l-2.901,1.047l0.17,4.711l-2.304,0.611l-3.414,2.617l-4.096-0.523l-1.622-0.96
	l-2.56,0.437l0.854,1.047l-2.048,1.221l-1.622-0.785L33.963,52l-4.693-2.355l-1.792-4.188l-1.536,0.174l-1.792-1.483l-0.085-1.134
	l-5.717-0.611l-0.938,3.141l-3.584-1.657l-1.792-3.054h-3.84l-0.427,4.887l-2.218,0.697l-1.109,4.449L3.584,50.08L0,40.745
	l4.267-2.095l-0.683-4.1l-0.683-4.188l1.877-2.704L4.181,26l2.56-2.792L7.765,23.383z M64.512,33.678l3.925,5.934l1.28-0.523
	l-1.621-2.443l-3.584-3.839V33.678z M24.405,21.638v-1.745l2.987-2.181l2.56-1.309h-2.987l-2.646,1.57l-1.621,1.483v2.181H24.405z"
	/>
<path fill="#88B6E5" d="M89.832,41h4.723v-5.182h2.616c3.968,0,6.626-2.344,6.626-6.102c0-3.716-2.591-6.171-6.456-6.171h-7.509V41z
	 M94.555,32.137V27.33h1.665c1.656,0,2.65,0.887,2.65,2.387c0,1.491-0.994,2.42-2.65,2.42H94.555z"/>
<path fill="#88B6E5" d="M111.604,41.239c4.248,0,6.763-2.728,6.763-6.75s-2.515-6.75-6.763-6.75s-6.762,2.728-6.762,6.75
	S107.355,41.239,111.604,41.239z M111.639,37.762c-1.258,0-2.006-1.253-2.006-3.307c0-2.055,0.748-3.307,2.006-3.307
	c1.188,0,1.937,1.252,1.937,3.307C113.575,36.509,112.827,37.762,111.639,37.762z"/>
<path fill="#88B6E5" d="M126.555,41.239c3.865,0,6.235-2.225,6.286-5.693h-4.349c-0.102,1.372-0.842,2.114-1.869,2.114
	c-1.232,0-2.039-1.058-2.039-3.205c0-2.148,0.807-3.205,2.039-3.205c1.036,0,1.74,0.742,1.869,2.114h4.349
	c-0.024-3.409-2.446-5.625-6.286-5.625c-4.246,0-6.762,2.728-6.762,6.75S122.309,41.239,126.555,41.239z"/>
<path fill="#88B6E5" d="M141.063,41.239c3.865,0,6.235-2.225,6.287-5.693h-4.351c-0.103,1.372-0.841,2.114-1.869,2.114
	c-1.231,0-2.038-1.058-2.038-3.205c0-2.148,0.807-3.205,2.038-3.205c1.037,0,1.742,0.742,1.869,2.114h4.351
	c-0.027-3.409-2.447-5.625-6.287-5.625c-4.248,0-6.763,2.728-6.763,6.75S136.814,41.239,141.063,41.239z"/>
<path fill="#88B6E5" d="M153.701,35v-7.09h-4.418V41h4.418l3.636-7.125V41h4.417V27.91h-4.417L153.701,35z"/>
<path fill="#88B6E5" d="M171.65,41H176V27.91h-6.116c-3.764,0-6.142,1.908-6.116,4.567c-0.018,1.491,0.875,2.728,2.438,3.46
	L163.631,41h4.316l2.199-4.329h1.504V41z M171.65,33.842h-1.664c-1.25,0-1.827-0.614-1.801-1.193
	c-0.026-0.546,0.518-1.228,1.698-1.228h1.767V33.842z"/>
</svg>
